<svg id="Capa_1" data-name="Capa 1" xmlns="http://www.w3.org/2000/svg" viewBox="0 0 268.88 310.07"><defs><style>.cls-1,.cls-2{fill:#010101;}.cls-1{fill-rule:evenodd;}</style></defs><path class="cls-1" d="M104.3,73.12a25,25,0,0,1,25-25H279.46a25,25,0,0,1,25,25v100.1a25,25,0,0,1-25,25H129.32a25,25,0,0,1-25-25Zm25-12.51a12.51,12.51,0,0,0-12.51,12.51v2.72l40.48,24.27A34.94,34.94,0,0,0,154.37,113L116.81,90.44V162L160,135.44a67.57,67.57,0,0,0,6.89,10.45l-49.68,30.57a12.51,12.51,0,0,0,12.1,9.27H279.46a12.51,12.51,0,0,0,12.09-9.27L241.9,145.9a69.27,69.27,0,0,0,6.88-10.46L292,162V90.43L254.41,113a35.13,35.13,0,0,0-2.91-12.84L292,75.84V73.12a12.52,12.52,0,0,0-12.52-12.51Zm75.07,37.45c20.82-21.41,72.88,16,0,64.21-72.88-48.17-20.82-85.62,0-64.21" transform="translate(-65.55 -48.1)"/><path class="cls-2" d="M196,219.48V351.9a6.25,6.25,0,0,0,12.5,0V219.48a6.25,6.25,0,0,0-12.5,0Z" transform="translate(-65.55 -48.1)"/><path class="cls-2" d="M148.14,219.48q.62,18.08.44,36.16c-.11,11.27-.33,22.57-1.09,33.81q-.23,3.36-.57,6.71c-.11,1.06-.23,2.12-.36,3.17-.06.49-.41,2.4,0,.39-.11.61-.17,1.24-.27,1.85a100.08,100.08,0,0,1-2.82,13.05q-.92,3.15-2.11,6.19l-.27.67c-.46,1.19.49-1.12.15-.33-.22.49-.43,1-.66,1.47-.45,1-.92,1.93-1.42,2.88a50.23,50.23,0,0,1-3.34,5.42c-.26.37-1.61,2-.29.44-.3.35-.58.74-.88,1.1-.72.87-1.48,1.71-2.26,2.52s-1.44,1.43-2.2,2.11c-.41.36-.82.72-1.24,1.06l-.56.45c-.49.4,1.32-1,.21-.17a38.36,38.36,0,0,1-5.24,3.19c-.47.24-.94.47-1.42.69l-.64.29c-.94.43.43-.18.51-.21-1.07.33-2.11.83-3.19,1.18a46.38,46.38,0,0,1-6.47,1.62c-.48.09-1,.15-1.43.23,2-.36.19,0-.31,0-1.13.11-2.27.18-3.41.2s-2,0-3-.05c-.53,0-1-.07-1.58-.12l-.69-.08c-1.31-.13,1.56.27.28,0A34.63,34.63,0,0,1,96,343.91l-.63-.24c-.93-.36.52.21.57.24-.41-.25-.91-.42-1.35-.64a24.3,24.3,0,0,1-2.68-1.6c-.44-.3-.88-.61-1.31-.93-.13-.09-1.12-.91-.3-.2l-.25-.21c-.84-.68-1.64-1.39-2.41-2.14a30.42,30.42,0,0,1-2.13-2.27c-.32-.39-1.17-1.65-.1-.1-.34-.49-.7-.95-1-1.44a43.92,43.92,0,0,1-3.31-5.81c-.08-.18-.51-1.26-.1-.21s.07.16,0-.07c-.2-.5-.38-1-.56-1.51-.37-1-.69-2.09-1-3.16s-.54-2.2-.75-3.31c-.1-.5-.18-1-.26-1.5,0-.17-.23-1.45,0-.31s0-.07,0-.32a46.74,46.74,0,0,1-.25-7.1c0-1.08.14-2.14.25-3.21s-.06.45-.08.55a9.27,9.27,0,0,0,.14-.92c.1-.6.22-1.21.35-1.8.22-1,.48-2,.79-2.95.16-.5.34-1,.53-1.49s.63-1.05-.18.37c.14-.24.24-.52.36-.77a20.54,20.54,0,0,1,1.43-2.55c.13-.19,1.18-1.7.52-.77s0,0,.17-.17.38-.44.58-.65a29.06,29.06,0,0,1,2.14-2c.92-.82-1,.71-.31.23l.7-.51q.72-.49,1.47-.93c.39-.23.8-.46,1.21-.67s1.89-.84.83-.42.65-.23.87-.31c.55-.19,1.1-.36,1.66-.51s.9-.22,1.35-.31c.3-.06,2.08-.37.88-.17s.63,0,.89-.05c.58,0,1.15,0,1.73,0s.92,0,1.38.08c.2,0,1.38.14.2,0s-.24,0,0,0a20.9,20.9,0,0,1,3.28.88,3.54,3.54,0,0,0,.69.27c-1.1-.16-1-.46-.48-.19s1,.49,1.47.77.93.59,1.39.9c.85.58-.32-.23-.39-.31.22.26.58.49.82.72a14.13,14.13,0,0,1,1,1l.2.21c-.72-.75,0,.06.13.26.26.41.49.83.71,1.26.49.91-.18-.4-.2-.52,0,.31.23.66.31,1s.38,2,.21.81,0,.57,0,.84,0,.45,0,.68c0,1.06,0-.67.1-.67s-.34,1.51-.38,1.63a5.65,5.65,0,0,0-.22.62c.17-1.27.53-1.05.16-.44a8.61,8.61,0,0,0-.76,1.26c0-.12,1-1.16.37-.51-.16.15-.3.32-.46.47a4.9,4.9,0,0,0-.48.44c.75-1,.87-.65.18-.22-2.78,1.71-4.1,5.67-2.24,8.55a6.36,6.36,0,0,0,8.55,2.24,16.59,16.59,0,0,0,7.65-15.39,20.1,20.1,0,0,0-9.84-15.33c-9.27-5.79-22-4.78-30.83,1.47a29.7,29.7,0,0,0-10.56,13.29,41.61,41.61,0,0,0-2.77,15.1c-.16,10.39,2.65,21.2,8.87,29.62a44,44,0,0,0,12,11.16,35.69,35.69,0,0,0,14.88,4.84c10,1.23,20.6-1.21,29.38-6s15.56-12.66,19.93-21.47c4.64-9.36,6.91-19.45,8.26-29.75,1.42-10.85,1.69-21.84,2-32.77q.48-19.46,0-38.91-.1-4.72-.27-9.47c-.12-3.26-2.8-6.4-6.25-6.25-3.29.15-6.37,2.75-6.25,6.25Z" transform="translate(-65.55 -48.1)"/><path class="cls-2" d="M239.36,219.48q-.66,19.44-.41,38.9c.16,11.72.35,23.49,1.38,35.17,1.71,19.51,6.43,41.15,22.61,54a50.4,50.4,0,0,0,29,10.57,40.44,40.44,0,0,0,14.7-1.92,39.21,39.21,0,0,0,13.74-8.44c7.79-7.1,12.13-17.29,13.51-27.59,1.45-10.75,0-22.47-7-31.1-6.83-8.36-18.61-12.14-29.06-9.8a24,24,0,0,0-14.55,9.81,18,18,0,0,0-1.06,17.66,15.21,15.21,0,0,0,5.85,6.36,6.3,6.3,0,0,0,8.55-2.24,6.37,6.37,0,0,0-2.24-8.55c-.19-.12-1-.78-.19-.07s.18.14,0,0l-.58-.58c-.41-.41-.07-.57.37.51a12.8,12.8,0,0,0-.69-1.11c-.1-.18-.57-1.2-.1-.15s0,.06,0-.18c-.15-.49-.25-1-.35-1.46-.18-.81.1,1.71.07.5,0-.23,0-.45,0-.68a12.12,12.12,0,0,0,.06-1.34c.16,1.26-.2,1.24-.05.5a8.08,8.08,0,0,1,.24-1c.06-.22.14-.43.2-.64.24-.77-.76,1.47-.14.36.23-.42.45-.85.71-1.26a3.91,3.91,0,0,0,.4-.6c-.1.7-.81,1-.19.27a12.89,12.89,0,0,1,1.26-1.3c.18-.17.37-.32.55-.48.62-.57-1.31.89-.25.19.41-.27.81-.55,1.23-.8s1-.55,1.46-.79c.23-.11,1-.41.1-.06s.25-.08.46-.16a21.11,21.11,0,0,1,2.93-.79c.21,0,.48-.05.69-.11-1.5.46-1.07.13-.46.07s1.15-.09,1.72-.1c1,0,2,.17,2.94.14-1.6,0-1.05-.15-.46-.05l.68.12c.62.13,1.24.27,1.85.45.89.25,1.74.64,2.63.9-1.88-.54-.11,0,.4.24s1,.55,1.51.85.79.49,1.17.75l.56.4c1,.71-.93-.78-.3-.23a29.86,29.86,0,0,1,2.39,2.25,11.31,11.31,0,0,0,.9,1c-.91-.76-.66-.91-.34-.45l.49.71a22.18,22.18,0,0,1,1.61,2.85c.09.21.18.42.28.62-.75-1.52-.38-.92-.24-.53s.37,1,.53,1.48a31.33,31.33,0,0,1,.89,3.29c.1.48.2,1,.28,1.45l.15.91c.13.82-.16-1.37-.08-.55.13,1.2.24,2.39.28,3.59a48.28,48.28,0,0,1-.26,6.91c0,.23-.09.53-.09.77,0-1.56.13-.89,0-.33s-.18,1.13-.29,1.69c-.21,1.11-.46,2.22-.75,3.31s-.6,2.12-1,3.16c-.16.45-.32.9-.5,1.34-.08.22-.19.44-.26.66.59-1.74.26-.64.07-.21a43.92,43.92,0,0,1-3.31,5.81c-.32.47-.76.94-1,1.44,0-.07,1-1.21.34-.44l-.44.54c-.71.83-1.46,1.63-2.25,2.39s-1.5,1.38-2.29,2a6.51,6.51,0,0,0-.58.46c1-1.08.61-.47.19-.16s-1.06.77-1.6,1.14a25.45,25.45,0,0,1-2.41,1.43c-.44.23-.9.41-1.34.65-.73.38,1.55-.6.42-.18l-.79.3a34.66,34.66,0,0,1-5.94,1.49c-.85.14,1.71-.19.45-.07l-.69.08-1.4.11c-1.18.07-2.37.09-3.55.05-1,0-2-.09-3.05-.19-.51-.05-2.32-.48-.31,0-.58-.13-1.19-.18-1.78-.29a45.86,45.86,0,0,1-6.3-1.62c-1-.32-1.9-.68-2.85-1.05-.79-.31,1.5.67.35.14l-.64-.29c-.53-.24-1.06-.5-1.58-.76a41.85,41.85,0,0,1-5.22-3.22c-.8-.58.43.33.48.37l-.55-.43-1.38-1.18c-.8-.72-1.58-1.47-2.32-2.24s-1.46-1.57-2.14-2.39c-.3-.36-.59-.73-.88-1.1,1.24,1.53,0,0-.29-.44a50.23,50.23,0,0,1-3.34-5.42c-.5-.95-1-1.91-1.42-2.88-.2-.43-.39-.87-.59-1.31-.51-1.16.46,1.14.15.34l-.34-.84A81.15,81.15,0,0,1,254.91,308c-.46-2.19-.85-4.4-1.19-6.61-.08-.56-.15-1.12-.24-1.67,0,.09.21,1.61.07.54l-.09-.74c-.15-1.18-.28-2.36-.4-3.55-1.07-10.48-1.29-21.07-1.51-31.6q-.37-18,0-35.91.1-4.5.26-9a6.29,6.29,0,0,0-6.25-6.25,6.39,6.39,0,0,0-6.25,6.25Z" transform="translate(-65.55 -48.1)"/></svg>