<svg id="Capa_1" data-name="Capa 1" xmlns="http://www.w3.org/2000/svg" viewBox="0 0 200.19 241.81"><defs><style>.cls-1,.cls-2{fill:#010101;}.cls-1{fill-rule:evenodd;}</style></defs><path class="cls-1" d="M49.91,55.19a25,25,0,0,1,25-25H225.07a25,25,0,0,1,25,25V155.28a25,25,0,0,1-25,25H74.93a25,25,0,0,1-25-25Zm25-12.51A12.51,12.51,0,0,0,62.42,55.19V57.9l40.47,24.28A35.13,35.13,0,0,0,100,95L62.42,72.5v71.58l43.2-26.57A68.7,68.7,0,0,0,112.5,128L62.83,158.52a12.5,12.5,0,0,0,12.1,9.27H225.07a12.52,12.52,0,0,0,12.09-9.27L187.51,128a70.56,70.56,0,0,0,6.88-10.46l43.19,26.57V72.49L200,95a35,35,0,0,0-2.91-12.84L237.58,57.9V55.19a12.51,12.51,0,0,0-12.51-12.51ZM150,80.12c20.82-21.4,72.88,16.06,0,64.21-72.88-48.17-20.82-85.61,0-64.21" transform="translate(-49.91 -30.16)"/><path class="cls-2" d="M89.82,227.4c0-.33.06-.67.09-1,.06-.88-.31,1.53,0,.22.12-.57.23-1.15.37-1.72s.31-1.11.5-1.65c.08-.24.18-.48.26-.72.41-1.19-.53,1.07,0,0a30.65,30.65,0,0,1,1.74-3.12c.3-.47.67-.91,1-1.38-.73,1.18-.51.63-.25.33s.48-.58.72-.85a29.38,29.38,0,0,1,2.49-2.5c.42-.37.84-.72,1.27-1.07.84-.69-.32.26-.33.25l1-.68a31.54,31.54,0,0,1,3.26-1.95c.55-.29,1.1-.56,1.65-.82l.75-.35c1.2-.56-1,.4.1,0a71.65,71.65,0,0,1,15.24-4c1.44-.23-1,.11-.08,0l1.08-.13q1-.11,2-.18c1.35-.11,2.72-.17,4.08-.17s2.7,0,4,.14c.62,0,1.28.2,1.9.19-1.3,0-.77-.12-.34,0l1.25.21a36.54,36.54,0,0,1,3.88.94c.61.18,1.21.38,1.81.6l.8.3c1.25.45-1-.48.14.05s2.44,1.2,3.61,1.91c.48.29.95.6,1.4.92l.61.43c1,.71-.92-.79-.05,0s1.75,1.53,2.56,2.37q.57.6,1.11,1.23l.47.57.47.57-.49-.63c0,.32.88,1.24,1.06,1.52.31.46.61.93.89,1.41.61,1,1.17,2.06,1.68,3.12.13.28.27.57.39.85l.08.17c.26.59.2.46-.16-.39a6.28,6.28,0,0,0,.61,1.58c.41,1.12.77,2.26,1.08,3.41s.58,2.32.8,3.49c.1.56.19,1.12.28,1.67.17,1-.07-.37-.06-.47a6,6,0,0,0,.13,1.11,45,45,0,0,1,.11,7.87c0,.35-.06.7-.1,1l0,.21c-.08.67-.07.55.05-.35a5.5,5.5,0,0,1-.32,1.85,31,31,0,0,1-1,3.81c-.11.33-.23.66-.35,1l-.07.19c-.25.61-.2.51.13-.29a5.35,5.35,0,0,1-.82,1.68c-.29.55-.6,1.09-.94,1.62-.13.2-.26.41-.4.61-.57.84-.25.18.18-.2-.78.69-1.41,1.62-2.19,2.35q-.59.54-1.2,1.05a4.89,4.89,0,0,0-.56.46c.73-.57.85-.66.34-.28l-.3.21a28.92,28.92,0,0,1-3,1.87c-.49.27-1,.52-1.49.76a2.87,2.87,0,0,0-.67.31q1.31-.54.42-.18l-.35.13a24.19,24.19,0,0,1-3.24,1l-.85.16c-.5.11-.78-.12.59-.07-.53,0-1.1.1-1.64.11s-1.07-.11-1.58-.08c.11,0,1.64.31.63.06-.3-.07-.6-.12-.9-.2-.54-.13-1.08-.29-1.62-.47l-.71-.26c-1.2-.41,1.06.53,0,0a31.65,31.65,0,0,1-3.27-1.82c-.28-.18-.55-.38-.82-.56s-.66-.69.26.22c-.46-.46-1-.84-1.49-1.28s-.93-.9-1.36-1.38l-.5-.58c-.84-1,.6.88.14.18a39.37,39.37,0,0,1-2.07-3.48c-.35-.67-.7-1.35-1-2-.13-.26-.25-.53-.37-.8,0-.08-.6-1.39-.21-.46s-.14-.35-.17-.44c-.1-.25-.2-.51-.29-.76-.23-.62-.44-1.23-.64-1.86a45.28,45.28,0,0,1-1.52-6.49c-.19-1.17.13,1.3.07.49l-.09-.76c0-.45-.08-.89-.11-1.34-.06-.88-.09-1.77-.1-2.66A114.27,114.27,0,0,1,121.9,219c.21-1.7-.2,1.31,0-.34.07-.47.15-.93.23-1.39.16-.93.35-1.85.56-2.76a41.93,41.93,0,0,1,1.53-5c.17-.45.89-2,0-.06l.5-1.11c.36-.79.75-1.57,1.16-2.34q1.38-2.59,3-5c.54-.82,1.1-1.63,1.69-2.42.14-.2.3-.39.44-.6,0,0-1,1.23-.39.52.31-.37.61-.74.92-1.1a36.46,36.46,0,0,1,3.78-3.78l1.11-.91c.3-.25.88-.6-.53.4l.59-.44c.78-.57,1.58-1.12,2.39-1.65,1.84-1.2,3.74-2.29,5.66-3.34,2.38-1.3,4.78-2.58,7.23-3.73l1.08-.49c.33-.14,1.26-.66.05,0a16.86,16.86,0,0,1,1.87-.73c1.26-.46,2.54-.88,3.84-1.24s2.48-.65,3.73-.9q.87-.18,1.74-.33l.77-.12.77-.11-.83.11a8.4,8.4,0,0,0,1.91-.21l1.72-.14c1.21-.09,2.43-.14,3.65-.18,2.51-.08,5-.08,7.53-.08a6,6,0,0,0,0-12,121.6,121.6,0,0,0-17.17.93,58.85,58.85,0,0,0-17.58,5.58c-8.39,4.08-17,8.81-22.9,16.24-5.43,6.85-9.69,14.77-11.29,23.43a109.54,109.54,0,0,0-1.54,16.28A54,54,0,0,0,110.37,244a50.81,50.81,0,0,0,2.89,8.4,37.64,37.64,0,0,0,4.31,7.94,30,30,0,0,0,15.49,10.83c6,1.72,11.9.4,17.39-2.16a31.59,31.59,0,0,0,12.78-10.74c3.57-5.29,5.11-11.82,5.47-18.11a50.34,50.34,0,0,0-2-17.12,45.55,45.55,0,0,0-8.15-15.53A35.66,35.66,0,0,0,143.9,197c-11.4-4.69-24.82-3.56-36.46-.35-5.69,1.56-11.46,3.83-16.2,7.4a34.47,34.47,0,0,0-11.52,14.54,28.33,28.33,0,0,0-1.9,8.77c-.22,3.14,2.92,6.14,6,6a6.14,6.14,0,0,0,6-6Z" transform="translate(-49.91 -30.16)"/></svg>